<svg width="200" height="50" viewBox="0 0 200 50" fill="none" xmlns="http://www.w3.org/2000/svg">
  <g>
    <path d="M25 10C17.2715 10 11 16.2715 11 24C11 31.7285 17.2715 38 25 38C32.7285 38 39 31.7285 39 24C39 16.2715 32.7285 10 25 10ZM25 34C19.4855 34 15 29.5145 15 24C15 18.4855 19.4855 14 25 14C30.5145 14 35 18.4855 35 24C35 29.5145 30.5145 34 25 34Z" fill="#e84c3d"/>
    <path d="M25 16C20.5815 16 17 19.5815 17 24C17 28.4185 20.5815 32 25 32C29.4185 32 33 28.4185 33 24C33 19.5815 29.4185 16 25 16ZM25 28C22.794 28 21 26.206 21 24C21 21.794 22.794 20 25 20C27.206 20 29 21.794 29 24C29 26.206 27.206 28 25 28Z" fill="#e84c3d"/>
    <path d="M35 14L30 19M35 34L30 29M15 34L20 29M15 14L20 19" stroke="#e84c3d" stroke-width="2" stroke-linecap="round"/>
    <path d="M33 24H39M11 24H17M25 16V10M25 38V32" stroke="#e84c3d" stroke-width="2" stroke-linecap="round"/>
    <path d="M60.296 34V16.6H67.096C68.376 16.6 69.464 16.84 70.36 17.32C71.272 17.784 71.968 18.424 72.448 19.24C72.928 20.056 73.168 20.992 73.168 22.048C73.168 23.104 72.928 24.032 72.448 24.832C71.968 25.632 71.272 26.256 70.36 26.704C69.464 27.152 68.376 27.376 67.096 27.376H63.248V34H60.296ZM63.248 24.88H66.88C67.856 24.88 68.616 24.632 69.16 24.136C69.72 23.624 70 22.928 70 22.048C70 21.152 69.72 20.448 69.16 19.936C68.616 19.424 67.856 19.168 66.88 19.168H63.248V24.88ZM80.441 34.24C79.385 34.24 78.425 34.024 77.561 33.592C76.697 33.144 76.009 32.52 75.497 31.72C74.985 30.92 74.729 29.992 74.729 28.936C74.729 27.88 74.985 26.952 75.497 26.152C76.009 25.352 76.697 24.736 77.561 24.304C78.425 23.856 79.385 23.632 80.441 23.632C81.497 23.632 82.457 23.856 83.321 24.304C84.185 24.736 84.873 25.352 85.385 26.152C85.897 26.952 86.153 27.88 86.153 28.936C86.153 29.992 85.897 30.92 85.385 31.72C84.873 32.52 84.185 33.144 83.321 33.592C82.457 34.024 81.497 34.24 80.441 34.24ZM80.441 31.72C81.209 31.72 81.841 31.464 82.337 30.952C82.849 30.424 83.105 29.752 83.105 28.936C83.105 28.12 82.849 27.456 82.337 26.944C81.841 26.416 81.209 26.152 80.441 26.152C79.673 26.152 79.033 26.416 78.521 26.944C78.025 27.456 77.777 28.12 77.777 28.936C77.777 29.752 78.025 30.424 78.521 30.952C79.033 31.464 79.673 31.72 80.441 31.72ZM99.068 23.872L93.164 34H90.164L84.26 23.872H87.5L91.688 31.048L95.924 23.872H99.068ZM104.997 34.24C103.941 34.24 102.981 34.024 102.117 33.592C101.253 33.144 100.565 32.52 100.053 31.72C99.5409 30.92 99.2849 29.992 99.2849 28.936C99.2849 27.88 99.5409 26.952 100.053 26.152C100.565 25.352 101.253 24.736 102.117 24.304C102.981 23.856 103.941 23.632 104.997 23.632C106.053 23.632 107.013 23.856 107.877 24.304C108.741 24.736 109.429 25.352 109.941 26.152C110.453 26.952 110.709 27.88 110.709 28.936C110.709 29.992 110.453 30.92 109.941 31.72C109.429 32.52 108.741 33.144 107.877 33.592C107.013 34.024 106.053 34.24 104.997 34.24ZM104.997 31.72C105.765 31.72 106.397 31.464 106.893 30.952C107.405 30.424 107.661 29.752 107.661 28.936C107.661 28.12 107.405 27.456 106.893 26.944C106.397 26.416 105.765 26.152 104.997 26.152C104.229 26.152 103.589 26.416 103.077 26.944C102.581 27.456 102.333 28.12 102.333 28.936C102.333 29.752 102.581 30.424 103.077 30.952C103.589 31.464 104.229 31.72 104.997 31.72ZM111.712 34V23.872H114.664V34H111.712ZM113.176 22.288C112.648 22.288 112.208 22.12 111.856 21.784C111.504 21.432 111.328 21 111.328 20.488C111.328 19.976 111.504 19.552 111.856 19.216C112.208 18.864 112.648 18.688 113.176 18.688C113.704 18.688 114.144 18.856 114.496 19.192C114.848 19.528 115.024 19.944 115.024 20.44C115.024 20.968 114.848 21.416 114.496 21.784C114.16 22.12 113.72 22.288 113.176 22.288ZM122.676 23.632C123.46 23.632 124.156 23.8 124.764 24.136C125.372 24.456 125.836 24.872 126.156 25.384V23.872H129.108V34.048C129.108 35.088 128.884 36.008 128.436 36.808C127.988 37.624 127.332 38.256 126.468 38.704C125.604 39.168 124.564 39.4 123.348 39.4C121.668 39.4 120.284 39.016 119.196 38.248C118.108 37.48 117.5 36.424 117.372 35.08H120.3C120.46 35.592 120.78 35.992 121.26 36.28C121.756 36.584 122.38 36.736 123.132 36.736C124.028 36.736 124.748 36.48 125.292 35.968C125.836 35.472 126.108 34.72 126.108 33.712V32.008C125.788 32.536 125.324 32.968 124.716 33.304C124.108 33.624 123.412 33.784 122.628 33.784C121.652 33.784 120.764 33.552 119.964 33.088C119.18 32.608 118.556 31.936 118.092 31.072C117.644 30.192 117.42 29.168 117.42 28C117.42 26.832 117.644 25.816 118.092 24.952C118.556 24.088 119.18 23.424 119.964 22.96C120.764 22.408 121.652 22.168 122.676 23.632ZM126.156 28.048C126.156 27.28 125.932 26.672 125.484 26.224C125.052 25.76 124.516 25.528 123.876 25.528C123.236 25.528 122.692 25.76 122.244 26.224C121.812 26.672 121.596 27.28 121.596 28.048C121.596 28.816 121.812 29.432 122.244 29.896C122.692 30.344 123.236 30.568 123.876 30.568C124.516 30.568 125.052 30.344 125.484 29.896C125.932 29.432 126.156 28.816 126.156 28.048ZM141.547 23.872V34H138.595V32.488C138.275 33 137.811 33.416 137.203 33.736C136.611 34.04 135.939 34.192 135.187 34.192C134.307 34.192 133.531 34 132.859 33.616C132.187 33.216 131.659 32.64 131.275 31.888C130.891 31.136 130.699 30.248 130.699 29.224V23.872H133.627V28.744C133.627 29.544 133.835 30.16 134.251 30.592C134.667 31.024 135.235 31.24 135.955 31.24C136.691 31.24 137.267 31.024 137.683 30.592C138.099 30.16 138.307 29.544 138.307 28.744V23.872H141.547ZM149.167 23.632C150.303 23.632 151.231 24.008 151.951 24.76C152.687 25.512 153.055 26.624 153.055 28.096V34H150.127V28.552C150.127 27.752 149.919 27.144 149.503 26.728C149.087 26.296 148.519 26.08 147.799 26.08C147.063 26.08 146.487 26.296 146.071 26.728C145.655 27.144 145.447 27.752 145.447 28.552V34H142.519V23.872H145.447V25.312C145.767 24.816 146.223 24.424 146.815 24.136C147.407 23.8 148.063 23.632 149.167 23.632Z" fill="#333333"/>
    <path d="M159.152 34V16.6H172.128V19.288H162.104V23.656H171.072V26.344H162.104V31.312H172.248V34H159.152ZM180.193 34.24C179.137 34.24 178.177 34.024 177.313 33.592C176.449 33.144 175.761 32.52 175.249 31.72C174.737 30.92 174.481 29.992 174.481 28.936C174.481 27.88 174.737 26.952 175.249 26.152C175.761 25.352 176.449 24.736 177.313 24.304C178.177 23.856 179.137 23.632 180.193 23.632C181.249 23.632 182.209 23.856 183.073 24.304C183.937 24.736 184.625 25.352 185.137 26.152C185.649 26.952 185.905 27.88 185.905 28.936C185.905 29.992 185.649 30.92 185.137 31.72C184.625 32.52 183.937 33.144 183.073 33.592C182.209 34.024 181.249 34.24 180.193 34.24ZM180.193 31.72C180.961 31.72 181.593 31.464 182.089 30.952C182.601 30.424 182.857 29.752 182.857 28.936C182.857 28.12 182.601 27.456 182.089 26.944C181.593 26.416 180.961 26.152 180.193 26.152C179.425 26.152 178.785 26.416 178.273 26.944C177.777 27.456 177.529 28.12 177.529 28.936C177.529 29.752 177.777 30.424 178.273 30.952C178.785 31.464 179.425 31.72 180.193 31.72ZM193.093 34.216C192.117 34.216 191.229 33.992 190.429 33.544C189.629 33.096 188.997 32.456 188.533 31.624C188.069 30.792 187.837 29.832 187.837 28.744C187.837 27.656 188.069 26.696 188.533 25.864C189.013 25.032 189.661 24.4 190.477 23.968C191.309 23.52 192.237 23.296 193.261 23.296C194.317 23.296 195.245 23.52 196.045 23.968C196.845 24.4 197.461 25.024 197.893 25.84C198.325 26.656 198.541 27.624 198.541 28.744C198.541 29.848 198.325 30.816 197.893 31.648C197.461 32.464 196.837 33.096 196.021 33.544C195.221 33.992 194.229 34.216 193.093 34.216ZM193.021 31.6C193.821 31.6 194.469 31.312 194.965 30.736C195.477 30.16 195.733 29.576 195.733 28.744C195.733 27.912 195.477 27.152 194.965 26.56C194.469 25.968 193.829 25.672 193.045 25.672C192.245 25.672 191.597 25.968 191.101 26.56C190.605 27.152 190.357 27.912 190.357 28.744C190.357 29.576 190.605 30.16 191.101 30.736C191.597 31.312 192.237 31.6 193.021 31.6Z" fill="#e84c3d"/>
  </g>
</svg>
